<?xml version="1.0" encoding="utf-8"?>
<svg xmlns="http://www.w3.org/2000/svg" height="48" width="48" viewBox="0 0 48 48">
  <g>
    <path id="path1" transform="rotate(0,24,24) translate(0,0) scale(1.5,1.5)  " fill="#000000" d="M14.306,21.392029L17.693024,21.392029 17.693024,24.356018 14.306,24.356018z M14.840027,6.6420288L17.160004,6.6420288 17.693024,17.507996 14.306,17.507996z M16,3.1300049C8.8920288,3.1300049 3.1300049,8.8920288 3.1300049,16 3.1300049,23.103027 8.8920288,28.869995 16,28.869995 23.110016,28.869995 28.870026,23.103027 28.872009,16 28.872009,8.8920288 23.110016,3.1300049 16,3.1300049z M16,0C24.823029,0 32,7.177002 32,16 32,24.820007 24.823029,32 16,32 7.1760254,32 0,24.820007 0,16 0,7.177002 7.1760254,0 16,0z" />
  </g>
</svg>

